<svg xmlns="http://www.w3.org/2000/svg" id="Capa_1" viewBox="0 0 195.83 175"><defs><style>.cls-1{fill:#0776df}</style></defs><path d="m169.17 32.77-28.62-8.22.1.02c-1.25-.37-2.57-.56-3.94-.56-.6 0-1.2.04-1.71.11l-97.39 12a2.785 2.785 0 0 0-2.42 2.48l-2.51 23.8c-.01.1-.02.2-.02.31 0 1.54 1.25 2.79 2.79 2.79h31.43c.85 0 1.62-.39 2.13-1 2.13-2.61 5.35-4.35 8.62-4.35 3.01 0 5.36 1.51 6.51 3.78.45.93 1.4 1.57 2.5 1.58h78.9c1.44 0 2.63-1.09 2.78-2.5l2.79-26.62.07-.62c.01-.1.02-.2.02-.31 0-1.27-.85-2.34-2.02-2.68ZM60.41 150.47l97.6-11.99a2.813 2.813 0 0 0 2.43-2.46l2.68-23.8c.02-.11.02-.21.02-.32 0-1.54-1.25-2.79-2.79-2.79h-31.44c-.85 0-1.61.38-2.11.99-2.11 2.58-5.32 4.31-8.57 4.31-3 0-5.33-1.47-6.49-3.74a2.805 2.805 0 0 0-2.49-1.58H30.3c-1.44 0-2.63 1.09-2.78 2.5l-2.8 26.62-.08.74c-.01.1-.02.2-.02.31 0 1.27.85 2.34 2.03 2.68l28.1 8.06c1.26.38 2.6.57 3.98.57.59 0 1.16-.04 1.66-.1ZM73.83 78.04c-3 0-5.33-1.47-6.48-3.73-.47-.93-1.41-1.57-2.51-1.58H34.12c-1.44 0-2.62 1.09-2.77 2.49l-2.47 23.53c-.01.09-.02.19-.02.3 0 1.54 1.25 2.79 2.79 2.79h79.66c.85 0 1.61-.39 2.12-1 2.13-2.61 5.35-4.36 8.62-4.36 3.01 0 5.36 1.48 6.5 3.76a2.82 2.82 0 0 0 2.51 1.59h30.68c1.44 0 2.62-1.09 2.77-2.49l2.47-23.53c.01-.09.02-.19.02-.3 0-1.54-1.25-2.79-2.79-2.79H84.54c-.84 0-1.6.39-2.11.99-2.15 2.59-5.35 4.32-8.6 4.32Z" class="cls-1"/></svg>